# xmcd
#
# Track frame offsets: 
#        183
#        13938
#        25363
#        34995
#        46600
#        59495
#        70295
#        81025
#        91793
#        103318
#        114573
#        127265
#        138185
#        151193
#        162173
#        175113
#        186143
#        196110
#        206190
#        215195
#        225205
#        237283
#        247233
#        257713
#        268988
#
# Disc length: 3737 seconds
#
# Revision: 7
# Processed by: cddbd v1.5.2PL0 Copyright (c) Steve Scherf et al.
# Submitted via: ExactAudioCopyFreeDBPlugin 1.0
#
DISCID=6b0e9719
DTITLE=Various Artist - The Sue Records Story:  New York City - The S
DTITLE=ound of Soul [box set]
DYEAR=1994
DGENRE=Rhythm and Blues
TTITLE0=The Matadors - Vengeance (Will Be Mine)
TTITLE1=Bobby Hendricks - Itchy Twitchy Feeling
TTITLE2=The Four Jokers - Written in the Stars
TTITLE3=Don Covay - Believe it or Not
TTITLE4=Bobby Hendricks - A Thousand Dreams
TTITLE5=Mamie Bradley - I Feel Like a Million
TTITLE6=Don Covay - Betty Jean
TTITLE7=The Commandos - The Chicken Scratch
TTITLE8=Johnny Darrow - Hand in Hand
TTITLE9=Bobby Hendricks - Psycho
TTITLE10=Bobby Adams - Don't Leave
TTITLE11=Johnny Darrow - Don't Start Me Talking
TTITLE12=Ike and Tina Turner - A Fool in Love
TTITLE13=The Night Riders - Night Ridin' (ft Piano Van)
TTITLE14=Ike and Tina Turner - I Idolize You
TTITLE15=Ike Turner's Kings of Rhythm - That's All I Need
TTITLE16=Jackie Brenston - Trouble Up the Road
TTITLE17=Ike and Tina Turner - I'm Jealous
TTITLE18=Jimmy and Jean - I Wanna Marry You
TTITLE19=Jackie Brenston - You Ain't the One
TTITLE20=Eloise Carter - My Man Rockhead
TTITLE21=Jimmy and Jean - I Can't Believe
TTITLE22=Ike Turner's Kings of Rhythm - My Love
TTITLE23=Pearl Woods - Keep Your Business to Yourself
TTITLE24=The Duals - Stick Shift
EXTD=
EXTT0=
EXTT1=
EXTT2=
EXTT3=
EXTT4=
EXTT5=
EXTT6=
EXTT7=
EXTT8=
EXTT9=
EXTT10=
EXTT11=
EXTT12=
EXTT13=
EXTT14=
EXTT15=
EXTT16=
EXTT17=
EXTT18=
EXTT19=
EXTT20=
EXTT21=
EXTT22=
EXTT23=
EXTT24=
PLAYORDER=
